<svg width="1440" height="94" viewBox="0 0 1440 94" fill="none" xmlns="http://www.w3.org/2000/svg">
<g clip-path="url(#clip0_354_15)">
<rect width="1440" height="94" fill="black"/>
<mask id="mask0_354_15" style="mask-type:alpha" maskUnits="userSpaceOnUse" x="0" y="-153" width="1440" height="401">
<path d="M459.474 -37H459.474C234.737 -37 117.895 -153 117.895 -153H1440V247C1353.16 247 1202.78 226.109 1143.16 138C1024.74 -36.9999 684.211 -37 459.474 -37Z" fill="url(#paint0_linear_354_15)"/>
<path d="M1440 247V128.5C937.895 -182.5 829.326 -113.5 748.365 8.11992C640.177 170.642 127.447 218.641 0 208.453V247H1440Z" fill="url(#paint1_linear_354_15)"/>
<path d="M1440 90.5001V247H0V-58.7877C97.1261 -83.2881 208.1 -105.161 394.211 -58.7877C431.816 -49.4176 501.604 -27.6779 536.758 -18.0999C722.525 32.5131 741.579 90.5001 1440 90.5001Z" fill="url(#paint2_linear_354_15)"/>
<path d="M1317.75 247H1440C1425.65 240.387 1403.27 232.996 1317.75 231.229C620.422 216.821 437.081 102.63 251.053 -27.1098C221.974 -47.3903 192.86 -67.6946 161.754 -87.5347C102.795 -125.14 48.7543 -145.324 0 -153V247H1317.75Z" fill="url(#paint3_linear_354_15)"/>
</mask>
<g mask="url(#mask0_354_15)">
<rect x="-181.053" y="-251" width="1758.95" height="601" fill="white"/>
</g>
</g>
<defs>
<linearGradient id="paint0_linear_354_15" x1="633.684" y1="-1113.5" x2="1106.94" y2="135.712" gradientUnits="userSpaceOnUse">
<stop stop-color="white"/>
<stop offset="1" stop-color="white" stop-opacity="0"/>
</linearGradient>
<linearGradient id="paint1_linear_354_15" x1="507.368" y1="905.5" x2="505.468" y2="-82.5004" gradientUnits="userSpaceOnUse">
<stop stop-color="white"/>
<stop offset="1" stop-color="white" stop-opacity="0"/>
</linearGradient>
<linearGradient id="paint2_linear_354_15" x1="446.315" y1="-740.5" x2="467.32" y2="121.642" gradientUnits="userSpaceOnUse">
<stop stop-color="white"/>
<stop offset="1" stop-color="white" stop-opacity="0"/>
</linearGradient>
<linearGradient id="paint3_linear_354_15" x1="617.895" y1="-1273.5" x2="391.252" y2="191.731" gradientUnits="userSpaceOnUse">
<stop stop-color="white"/>
<stop offset="1" stop-color="white" stop-opacity="0"/>
</linearGradient>
<clipPath id="clip0_354_15">
<rect width="1440" height="94" fill="white"/>
</clipPath>
</defs>
</svg>
